<svg xmlns="http://www.w3.org/2000/svg" width="1450" height="560" viewBox="0 0 1450 560">
  <rect width="1450" height="560" fill="#0b1020"/>
  <style>text{font-family:ui-monospace,SFMono-Regular,monospace;fill:#e5e7eb}.title{font-size:25px;font-weight:700}.sub{font-size:12px;fill:#94a3b8}.head{font-size:14px;font-weight:700}.small{font-size:11px;fill:#94a3b8}</style>
  <defs><marker id="a" markerWidth="10" markerHeight="10" refX="8" refY="3" orient="auto"><path d="M0,0 L0,6 L9,3 z" fill="#38bdf8"/></marker></defs>
  <text x="38" y="44" class="title">Block-0 trace after an exact Attention core</text>
  <text x="38" y="70" class="sub">rejected solutions used only as a microscope · B1/B2/B4/B8 · two fresh processes</text>
  <rect x="65" y="130" width="190" height="85" rx="11" fill="#131b2e" stroke="#22c55e"/><text x="160" y="163" class="head" text-anchor="middle">BF16 cache</text><text x="160" y="190" class="small" text-anchor="middle">exact</text>
  <line x1="255" y1="172" x2="315" y2="172" stroke="#38bdf8" stroke-width="3" marker-end="url(#a)"/>
  <rect x="330" y="130" width="190" height="85" rx="11" fill="#131b2e" stroke="#22c55e"/><text x="425" y="163" class="head" text-anchor="middle">P×V context</text><text x="425" y="190" class="small" text-anchor="middle">must stay exact</text>
  <line x1="520" y1="172" x2="580" y2="172" stroke="#38bdf8" stroke-width="3" marker-end="url(#a)"/>
  <rect x="595" y="130" width="190" height="85" rx="11" fill="#131b2e" stroke="#f97316"/><text x="690" y="163" class="head" text-anchor="middle">O projection</text><text x="690" y="190" class="small" text-anchor="middle">candidate first drift</text>
  <line x1="785" y1="172" x2="845" y2="172" stroke="#38bdf8" stroke-width="3" marker-end="url(#a)"/>
  <rect x="860" y="130" width="190" height="85" rx="11" fill="#131b2e" stroke="#64748b"/><text x="955" y="163" class="head" text-anchor="middle">residual / norm</text><text x="955" y="190" class="small" text-anchor="middle">propagation</text>
  <line x1="1050" y1="172" x2="1110" y2="172" stroke="#38bdf8" stroke-width="3" marker-end="url(#a)"/>
  <rect x="1125" y="130" width="250" height="85" rx="11" fill="#131b2e" stroke="#64748b"/><text x="1250" y="163" class="head" text-anchor="middle">FFN / block output</text><text x="1250" y="190" class="small" text-anchor="middle">later boundary</text>
  <text x="65" y="310" class="head">Route contract</text>
  <line x1="120" y1="370" x2="1320" y2="370" stroke="#334155" stroke-width="4"/><circle cx="260" cy="370" r="12" fill="#22c55e"/><text x="260" y="408" class="small" text-anchor="middle">4 entries</text><circle cx="540" cy="370" r="12" fill="#22c55e"/><text x="540" y="408" class="small" text-anchor="middle">4 cache misses</text><circle cx="820" cy="370" r="12" fill="#22c55e"/><text x="820" y="408" class="small" text-anchor="middle">136 cache hits</text><circle cx="1100" cy="370" r="12" fill="#22c55e"/><text x="1100" y="408" class="small" text-anchor="middle">140 dispatches</text><circle cx="1320" cy="370" r="12" fill="#22c55e"/><text x="1320" y="408" class="small" text-anchor="middle">50 records</text>
  <rect x="65" y="465" width="1310" height="55" rx="10" fill="#111827" stroke="#334155"/><text x="90" y="498" class="sub">First nonzero boundary chooses the next component. No timing or default claim comes from this trace.</text>
</svg>
