<svg xmlns="http://www.w3.org/2000/svg" width="1640" height="660" viewBox="0 0 1640 660">
<rect width="100%" height="100%" fill="#0b1020"/>
<style>text{font-family:ui-monospace,SFMono-Regular,monospace;fill:#e5e7eb}.title{font-size:22px;font-weight:700}.label{font-size:10px}.muted{fill:#94a3b8;font-size:12px}</style>
<text x="30" y="38" class="title">First drift after exact block-0 cache</text>
<text x="30" y="62" class="muted">DeepSeek T2048 · Q296100 · KV292135 · complete first two batch rows</text>
<text x="30" y="123" class="label">B2</text>
<rect x="100" y="228.00" width="28" height="2.00" fill="#38bdf8"/>
<text x="114" y="250" class="label" text-anchor="middle" transform="rotate(58 114 250)">embedding_rows</text>
<rect x="188" y="228.00" width="28" height="2.00" fill="#38bdf8"/>
<text x="202" y="250" class="label" text-anchor="middle" transform="rotate(58 202 250)">attention_norm</text>
<rect x="276" y="228.00" width="28" height="2.00" fill="#38bdf8"/>
<text x="290" y="250" class="label" text-anchor="middle" transform="rotate(58 290 250)">attention.q_projection</text>
<rect x="364" y="228.00" width="28" height="2.00" fill="#38bdf8"/>
<text x="378" y="250" class="label" text-anchor="middle" transform="rotate(58 378 250)">attention.k_projection</text>
<rect x="452" y="228.00" width="28" height="2.00" fill="#38bdf8"/>
<text x="466" y="250" class="label" text-anchor="middle" transform="rotate(58 466 250)">attention.v_projection</text>
<rect x="540" y="228.00" width="28" height="2.00" fill="#38bdf8"/>
<text x="554" y="250" class="label" text-anchor="middle" transform="rotate(58 554 250)">attention.q_rope</text>
<rect x="628" y="228.00" width="28" height="2.00" fill="#38bdf8"/>
<text x="642" y="250" class="label" text-anchor="middle" transform="rotate(58 642 250)">attention.k_rope</text>
<rect x="716" y="228.00" width="28" height="2.00" fill="#38bdf8"/>
<text x="730" y="250" class="label" text-anchor="middle" transform="rotate(58 730 250)">attention.value</text>
<rect x="804" y="228.00" width="28" height="2.00" fill="#38bdf8"/>
<text x="818" y="250" class="label" text-anchor="middle" transform="rotate(58 818 250)">attention.cache_key</text>
<rect x="892" y="228.00" width="28" height="2.00" fill="#38bdf8"/>
<text x="906" y="250" class="label" text-anchor="middle" transform="rotate(58 906 250)">attention.cache_value</text>
<rect x="980" y="224.70" width="28" height="5.30" fill="#38bdf8"/>
<text x="994" y="250" class="label" text-anchor="middle" transform="rotate(58 994 250)">attention.context</text>
<rect x="1068" y="213.46" width="28" height="16.54" fill="#38bdf8"/>
<text x="1082" y="250" class="label" text-anchor="middle" transform="rotate(58 1082 250)">attention.output</text>
<rect x="1156" y="213.46" width="28" height="16.54" fill="#38bdf8"/>
<text x="1170" y="250" class="label" text-anchor="middle" transform="rotate(58 1170 250)">attention_output</text>
<rect x="1244" y="213.46" width="28" height="16.54" fill="#38bdf8"/>
<text x="1258" y="250" class="label" text-anchor="middle" transform="rotate(58 1258 250)">attention_residual</text>
<rect x="1332" y="225.35" width="28" height="4.65" fill="#38bdf8"/>
<text x="1346" y="250" class="label" text-anchor="middle" transform="rotate(58 1346 250)">ffn_norm</text>
<rect x="1420" y="216.05" width="28" height="13.95" fill="#38bdf8"/>
<text x="1434" y="250" class="label" text-anchor="middle" transform="rotate(58 1434 250)">ffn_output</text>
<rect x="1508" y="212.43" width="28" height="17.57" fill="#38bdf8"/>
<text x="1522" y="250" class="label" text-anchor="middle" transform="rotate(58 1522 250)">output</text>
<text x="30" y="293" class="label">B4</text>
<rect x="100" y="398.00" width="28" height="2.00" fill="#f97316"/>
<text x="114" y="420" class="label" text-anchor="middle" transform="rotate(58 114 420)">embedding_rows</text>
<rect x="188" y="398.00" width="28" height="2.00" fill="#f97316"/>
<text x="202" y="420" class="label" text-anchor="middle" transform="rotate(58 202 420)">attention_norm</text>
<rect x="276" y="398.00" width="28" height="2.00" fill="#f97316"/>
<text x="290" y="420" class="label" text-anchor="middle" transform="rotate(58 290 420)">attention.q_projection</text>
<rect x="364" y="398.00" width="28" height="2.00" fill="#f97316"/>
<text x="378" y="420" class="label" text-anchor="middle" transform="rotate(58 378 420)">attention.k_projection</text>
<rect x="452" y="398.00" width="28" height="2.00" fill="#f97316"/>
<text x="466" y="420" class="label" text-anchor="middle" transform="rotate(58 466 420)">attention.v_projection</text>
<rect x="540" y="398.00" width="28" height="2.00" fill="#f97316"/>
<text x="554" y="420" class="label" text-anchor="middle" transform="rotate(58 554 420)">attention.q_rope</text>
<rect x="628" y="398.00" width="28" height="2.00" fill="#f97316"/>
<text x="642" y="420" class="label" text-anchor="middle" transform="rotate(58 642 420)">attention.k_rope</text>
<rect x="716" y="398.00" width="28" height="2.00" fill="#f97316"/>
<text x="730" y="420" class="label" text-anchor="middle" transform="rotate(58 730 420)">attention.value</text>
<rect x="804" y="398.00" width="28" height="2.00" fill="#f97316"/>
<text x="818" y="420" class="label" text-anchor="middle" transform="rotate(58 818 420)">attention.cache_key</text>
<rect x="892" y="398.00" width="28" height="2.00" fill="#f97316"/>
<text x="906" y="420" class="label" text-anchor="middle" transform="rotate(58 906 420)">attention.cache_value</text>
<rect x="980" y="220.00" width="28" height="180.00" fill="#f97316"/>
<text x="994" y="420" class="label" text-anchor="middle" transform="rotate(58 994 420)">attention.context</text>
<rect x="1068" y="312.79" width="28" height="87.21" fill="#f97316"/>
<text x="1082" y="420" class="label" text-anchor="middle" transform="rotate(58 1082 420)">attention.output</text>
<rect x="1156" y="312.79" width="28" height="87.21" fill="#f97316"/>
<text x="1170" y="420" class="label" text-anchor="middle" transform="rotate(58 1170 420)">attention_output</text>
<rect x="1244" y="312.79" width="28" height="87.21" fill="#f97316"/>
<text x="1258" y="420" class="label" text-anchor="middle" transform="rotate(58 1258 420)">attention_residual</text>
<rect x="1332" y="368.24" width="28" height="31.76" fill="#f97316"/>
<text x="1346" y="420" class="label" text-anchor="middle" transform="rotate(58 1346 420)">ffn_norm</text>
<rect x="1420" y="318.67" width="28" height="81.33" fill="#f97316"/>
<text x="1434" y="420" class="label" text-anchor="middle" transform="rotate(58 1434 420)">ffn_output</text>
<rect x="1508" y="255.82" width="28" height="144.18" fill="#f97316"/>
<text x="1522" y="420" class="label" text-anchor="middle" transform="rotate(58 1522 420)">output</text>
<text x="30" y="463" class="label">B8</text>
<rect x="100" y="568.00" width="28" height="2.00" fill="#22c55e"/>
<text x="114" y="590" class="label" text-anchor="middle" transform="rotate(58 114 590)">embedding_rows</text>
<rect x="188" y="568.00" width="28" height="2.00" fill="#22c55e"/>
<text x="202" y="590" class="label" text-anchor="middle" transform="rotate(58 202 590)">attention_norm</text>
<rect x="276" y="568.00" width="28" height="2.00" fill="#22c55e"/>
<text x="290" y="590" class="label" text-anchor="middle" transform="rotate(58 290 590)">attention.q_projection</text>
<rect x="364" y="568.00" width="28" height="2.00" fill="#22c55e"/>
<text x="378" y="590" class="label" text-anchor="middle" transform="rotate(58 378 590)">attention.k_projection</text>
<rect x="452" y="568.00" width="28" height="2.00" fill="#22c55e"/>
<text x="466" y="590" class="label" text-anchor="middle" transform="rotate(58 466 590)">attention.v_projection</text>
<rect x="540" y="568.00" width="28" height="2.00" fill="#22c55e"/>
<text x="554" y="590" class="label" text-anchor="middle" transform="rotate(58 554 590)">attention.q_rope</text>
<rect x="628" y="568.00" width="28" height="2.00" fill="#22c55e"/>
<text x="642" y="590" class="label" text-anchor="middle" transform="rotate(58 642 590)">attention.k_rope</text>
<rect x="716" y="568.00" width="28" height="2.00" fill="#22c55e"/>
<text x="730" y="590" class="label" text-anchor="middle" transform="rotate(58 730 590)">attention.value</text>
<rect x="804" y="568.00" width="28" height="2.00" fill="#22c55e"/>
<text x="818" y="590" class="label" text-anchor="middle" transform="rotate(58 818 590)">attention.cache_key</text>
<rect x="892" y="568.00" width="28" height="2.00" fill="#22c55e"/>
<text x="906" y="590" class="label" text-anchor="middle" transform="rotate(58 906 590)">attention.cache_value</text>
<rect x="980" y="390.00" width="28" height="180.00" fill="#22c55e"/>
<text x="994" y="590" class="label" text-anchor="middle" transform="rotate(58 994 590)">attention.context</text>
<rect x="1068" y="481.63" width="28" height="88.37" fill="#22c55e"/>
<text x="1082" y="590" class="label" text-anchor="middle" transform="rotate(58 1082 590)">attention.output</text>
<rect x="1156" y="481.63" width="28" height="88.37" fill="#22c55e"/>
<text x="1170" y="590" class="label" text-anchor="middle" transform="rotate(58 1170 590)">attention_output</text>
<rect x="1244" y="481.63" width="28" height="88.37" fill="#22c55e"/>
<text x="1258" y="590" class="label" text-anchor="middle" transform="rotate(58 1258 590)">attention_residual</text>
<rect x="1332" y="538.20" width="28" height="31.80" fill="#22c55e"/>
<text x="1346" y="590" class="label" text-anchor="middle" transform="rotate(58 1346 590)">ffn_norm</text>
<rect x="1420" y="489.51" width="28" height="80.49" fill="#22c55e"/>
<text x="1434" y="590" class="label" text-anchor="middle" transform="rotate(58 1434 590)">ffn_output</text>
<rect x="1508" y="427.37" width="28" height="142.63" fill="#22c55e"/>
<text x="1522" y="590" class="label" text-anchor="middle" transform="rotate(58 1522 590)">output</text>
</svg>
